<?xml version="1.0" encoding="UTF-8" standalone="no"?>
<!-- Generator: Adobe Illustrator 15.0.0, SVG Export Plug-In . SVG Version: 6.00 Build 0)  -->

<svg
   xmlns:dc="http://purl.org/dc/elements/1.1/"
   xmlns:cc="http://creativecommons.org/ns#"
   xmlns:rdf="http://www.w3.org/1999/02/22-rdf-syntax-ns#"
   xmlns:svg="http://www.w3.org/2000/svg"
   xmlns="http://www.w3.org/2000/svg"
   xmlns:sodipodi="http://sodipodi.sourceforge.net/DTD/sodipodi-0.dtd"
   xmlns:inkscape="http://www.inkscape.org/namespaces/inkscape"
   version="1.1"
   x="0px"
   y="0px"
   width="81"
   height="81"
   viewBox="0 0 81 81"
   enable-background="new 0 0 30 30"
   xml:space="preserve"
   id="svg2"
   inkscape:version="0.48.1 r9760"
   sodipodi:docname="photos.svg"><metadata
   id="metadata19"><rdf:RDF><cc:Work
       rdf:about=""><dc:format>image/svg+xml</dc:format><dc:type
         rdf:resource="http://purl.org/dc/dcmitype/StillImage" /></cc:Work></rdf:RDF></metadata><defs
   id="defs17">
	
	
	
	
</defs><sodipodi:namedview
   pagecolor="#ffffff"
   bordercolor="#666666"
   borderopacity="1"
   objecttolerance="10"
   gridtolerance="10"
   guidetolerance="10"
   inkscape:pageopacity="0"
   inkscape:pageshadow="2"
   inkscape:window-width="1083"
   inkscape:window-height="929"
   id="namedview15"
   showgrid="false"
   inkscape:zoom="5.7511352"
   inkscape:cx="25.838471"
   inkscape:cy="35.865446"
   inkscape:window-x="0"
   inkscape:window-y="26"
   inkscape:window-maximized="0"
   inkscape:current-layer="svg2" />

<path
   style="fill:#e3e3e3;fill-opacity:1"
   inkscape:connector-curvature="0"
   id="path7"
   d="M 62.074402,40.31742 50.185015,28.778774 c -0.448221,-0.432754 -1.185243,-0.432754 -1.633462,0 L 36.659855,40.31742 29.391296,33.263285 c -0.448221,-0.432755 -1.185243,-0.432755 -1.633462,0 l -9.581284,9.29639 0,12.747611 43.897852,0 z m 6.534776,-27.265858 -56.967406,0 c -1.305502,0 -2.3736416,1.070511 -2.3736416,2.373642 l 0,48.725553 c 0,1.307877 1.0681396,2.373642 2.3736416,2.373642 l 56.967406,0 c 1.305503,0 2.373642,-1.065765 2.373642,-2.373642 l 0,-48.725553 c 0,-1.303131 -1.068139,-2.373642 -2.373642,-2.373642 z m -3.069157,47.508401 -50.829092,0 0,-41.543967 50.829092,0 z"
   sodipodi:nodetypes="ccccccccccsssssssssccccc" />
</svg>