<?xml version="1.0" encoding="UTF-8" standalone="no"?>
<!-- Generator: Adobe Illustrator 15.0.0, SVG Export Plug-In . SVG Version: 6.00 Build 0)  -->

<svg
   xmlns:dc="http://purl.org/dc/elements/1.1/"
   xmlns:cc="http://creativecommons.org/ns#"
   xmlns:rdf="http://www.w3.org/1999/02/22-rdf-syntax-ns#"
   xmlns:svg="http://www.w3.org/2000/svg"
   xmlns="http://www.w3.org/2000/svg"
   xmlns:sodipodi="http://sodipodi.sourceforge.net/DTD/sodipodi-0.dtd"
   xmlns:inkscape="http://www.inkscape.org/namespaces/inkscape"
   version="1.1"
   x="0px"
   y="0px"
   width="81"
   height="81"
   viewBox="0 0 81 81"
   enable-background="new 0 0 30 30"
   xml:space="preserve"
   id="svg2"
   inkscape:version="0.48.1 r9760"
   sodipodi:docname="share.svg"><metadata
   id="metadata23"><rdf:RDF><cc:Work
       rdf:about=""><dc:format>image/svg+xml</dc:format><dc:type
         rdf:resource="http://purl.org/dc/dcmitype/StillImage" /></cc:Work></rdf:RDF></metadata><defs
   id="defs21">
	

		
		
		
		
		
	</defs><sodipodi:namedview
   pagecolor="#ffffff"
   bordercolor="#666666"
   borderopacity="1"
   objecttolerance="10"
   gridtolerance="10"
   guidetolerance="10"
   inkscape:pageopacity="0"
   inkscape:pageshadow="2"
   inkscape:window-width="1118"
   inkscape:window-height="922"
   id="namedview19"
   showgrid="false"
   inkscape:zoom="5.7511352"
   inkscape:cx="12.550781"
   inkscape:cy="35.865446"
   inkscape:window-x="0"
   inkscape:window-y="26"
   inkscape:window-maximized="0"
   inkscape:current-layer="svg2" />

<path
   d="m 58.688148,47.209935 c -2.783235,0 -5.381545,1.036984 -7.401673,2.935389 L 38.791177,43.300766 c 0.306647,-1.179774 0.461141,-2.394659 0.461141,-3.621249 0,-1.317881 -0.177902,-2.610014 -0.531365,-3.871716 L 51.160071,28.98665 c 2.038854,2.001401 4.76825,3.1367 7.617029,3.1367 6.015907,0 10.912903,-4.901678 10.912903,-10.922267 0,-6.015908 -4.896996,-10.912904 -10.912903,-10.912904 -6.02059,0 -10.917586,4.896996 -10.917586,10.912904 0,0.250468 0.0094,0.503276 0.02809,0.758426 l -13.199884,7.191 c -2.659172,-2.492974 -6.214878,-3.904489 -9.87358,-3.904489 -7.958788,0 -14.433496,6.474709 -14.433496,14.433497 0,7.958788 6.474708,14.438179 14.433496,14.438179 3.76638,0 7.39231,-1.48642 10.072549,-4.096435 l 12.942395,7.064595 c -0.04213,0.351123 -0.05851,0.695223 -0.05851,1.036984 0,6.020589 4.901678,10.917585 10.917585,10.917585 6.02059,0 10.917586,-4.896996 10.917586,-10.917585 0,-6.018249 -4.896996,-10.912905 -10.917586,-10.912905 z"
   id="path9"
   inkscape:connector-curvature="0"
   style="fill:#e3e3e3;fill-opacity:1" />
</svg>